<svg width="1284" height="490" viewBox="0 0 1284 490" fill="none" xmlns="http://www.w3.org/2000/svg">
<g clip-path="url(#clip0_30_192)">
<path d="M160.5 48.1499H48.1499V72.2249H160.5V48.1499Z" fill="#58595B"/>
<path d="M160.5 136.425H48.1499V160.5H160.5V136.425Z" fill="#58595B"/>
<path d="M72.2249 48.1499H48.1499V144.45H72.2249V48.1499Z" fill="#58595B"/>
<path d="M208.65 48.1499H184.575V168.525H208.65V48.1499Z" fill="#58595B"/>
<path d="M256.8 48.1499H232.725V168.525H256.8V48.1499Z" fill="#58595B"/>
<path d="M304.95 48.1499H280.875V168.525H304.95V48.1499Z" fill="#58595B"/>
<path d="M232.725 144.45H208.65V168.525H232.725V144.45Z" fill="#58595B"/>
<path d="M280.875 48.1499H256.8V72.2249H280.875V48.1499Z" fill="#58595B"/>
<path d="M353.1 184.575H329.025V304.95H353.1V184.575Z" fill="#58595B"/>
<path d="M393.225 184.575H369.15V304.95H393.225V184.575Z" fill="#58595B"/>
<path d="M441.375 184.575H417.3V304.95H441.375V184.575Z" fill="#58595B"/>
<path d="M369.15 280.875H345.075V304.95H369.15V280.875Z" fill="#58595B"/>
<path d="M417.3 184.575H393.225V208.65H417.3V184.575Z" fill="#58595B"/>
<path d="M72.2249 184.575H48.1499V304.95H72.2249V184.575Z" fill="#58595B"/>
<path d="M120.375 184.575H96.2998V304.95H120.375V184.575Z" fill="#58595B"/>
<path d="M160.5 184.575H136.425V304.95H160.5V184.575Z" fill="#58595B"/>
<path d="M72.2249 329.025H48.1499V449.4H72.2249V329.025Z" fill="#58595B"/>
<path d="M160.5 329.025H136.425V449.4H160.5V329.025Z" fill="#58595B"/>
<path d="M96.3001 280.875H72.2251V304.95H96.3001V280.875Z" fill="#58595B"/>
<path d="M136.425 184.575H112.35V208.65H136.425V184.575Z" fill="#58595B"/>
<path d="M353.1 48.1499H329.025V168.525H353.1V48.1499Z" fill="#58595B"/>
<path d="M441.375 96.3H417.3V168.525H441.375V96.3Z" fill="#58595B"/>
<path d="M441.375 48.1499H345.075V72.2249H441.375V48.1499Z" fill="#58595B"/>
<path d="M417.3 96.3H345.075V120.375H417.3V96.3Z" fill="#58595B"/>
<path d="M417.3 144.45H345.075V168.525H417.3V144.45Z" fill="#58595B"/>
<path d="M296.925 184.575H184.575V208.65H296.925V184.575Z" fill="#58595B"/>
<path d="M296.925 232.725H184.575V256.8H296.925V232.725Z" fill="#58595B"/>
<path d="M208.65 208.65H184.575V304.95H208.65V208.65Z" fill="#58595B"/>
<path d="M296.925 208.65H272.85V232.725H296.925V208.65Z" fill="#58595B"/>
<path d="M144.45 369.15H72.2251V393.225H144.45V369.15Z" fill="#58595B"/>
<path d="M208.65 329.025H184.575V449.4H208.65V329.025Z" fill="#58595B"/>
<path d="M304.95 280.875H280.875V441.375H304.95V280.875Z" fill="#58595B"/>
<path d="M280.875 369.15H208.65V393.225H280.875V369.15Z" fill="#58595B"/>
<path d="M144.45 329.025H72.2251V353.1H144.45V329.025Z" fill="#58595B"/>
<path d="M353.1 329.025H329.025V449.4H353.1V329.025Z" fill="#58595B"/>
<path d="M441.375 329.025H417.3V449.4H441.375V329.025Z" fill="#58595B"/>
<path d="M417.3 369.15H345.075V393.225H417.3V369.15Z" fill="#58595B"/>
<path d="M417.3 329.025H345.075V353.1H417.3V329.025Z" fill="#58595B"/>
<path d="M489.525 0H0V24.075H489.525V0Z" fill="#58595B"/>
<path d="M489.525 0H465.45V489.525H489.525V0Z" fill="#58595B"/>
<path d="M489.525 465.45H0V489.525H489.525V465.45Z" fill="#58595B"/>
<path d="M24.075 24.075H0V465.45H24.075V24.075Z" fill="#58595B"/>
<path d="M393.225 417.3H369.15V465.45H393.225V417.3Z" fill="#58595B"/>
<path d="M632.868 80.2593C638.046 80.1263 643.166 81.4232 647.723 84.0219C651.966 86.5187 655.535 90.1193 658.09 94.4821L650.965 100.013C649.039 96.7773 646.414 94.0695 643.306 92.1116C640.134 90.1866 636.526 89.211 632.868 89.2897C629.985 89.2747 627.128 89.863 624.461 91.0205C621.937 92.1389 619.648 93.776 617.728 95.8367C615.807 97.9254 614.294 100.393 613.275 103.099C612.181 106.02 611.636 109.138 611.672 112.279C611.643 115.42 612.188 118.537 613.275 121.46C614.287 124.153 615.797 126.605 617.718 128.673C619.639 130.74 621.931 132.382 624.461 133.501C627.124 134.671 629.984 135.26 632.868 135.232C636.495 135.319 640.077 134.37 643.235 132.485C646.343 130.527 648.968 127.819 650.894 124.583L658.019 130.152C655.502 134.515 651.938 138.098 647.688 140.537C643.118 143.135 637.986 144.432 632.797 144.3C628.647 144.328 624.532 143.498 620.685 141.854C617.045 140.285 613.72 137.999 610.888 135.119C608.08 132.223 605.84 128.771 604.298 124.96C602.674 120.927 601.849 116.586 601.876 112.204C601.837 105.84 603.61 99.6112 606.964 94.3244C610.318 89.0376 615.098 84.9371 620.685 82.5545C624.559 80.9351 628.703 80.1546 632.868 80.2593ZM736.64 143.396H727.164V100.578L690.472 144.45H687.266V81.2752H696.671V123.906L733.399 80.2593H736.605L736.64 143.396ZM807.104 90.2303H778.605V106.786H794.387C797.062 106.752 799.724 107.197 802.259 108.103C804.49 108.906 806.539 110.187 808.28 111.866C809.96 113.466 811.275 115.447 812.127 117.66C813.042 120.049 813.491 122.609 813.445 125.185C813.499 127.763 813.05 130.324 812.127 132.711C811.247 134.908 809.936 136.883 808.28 138.505C806.528 140.167 804.482 141.446 802.259 142.268C799.731 143.204 797.066 143.663 794.387 143.622H769.343V81.2752H807.104V90.2303ZM778.605 115.365V134.667H793.567C796.396 134.929 799.209 134.01 801.404 132.109C803.141 130.226 804.113 127.701 804.113 125.072C804.113 122.444 803.141 119.919 801.404 118.036C799.274 116.137 796.526 115.192 793.745 115.402L778.605 115.365ZM891.604 143.396H882.164V100.578L845.435 144.45H842.229V81.2752H851.705V123.906L888.398 80.2593H891.604V143.396ZM945.716 81.2752C948.512 81.2363 951.294 81.6942 953.946 82.6298C956.277 83.4226 958.433 84.7021 960.287 86.3924C962.02 88.0805 963.403 90.1306 964.348 92.4126C966.247 97.3723 966.247 102.917 964.348 107.877C963.421 110.213 962.037 112.316 960.287 114.048C958.432 115.736 956.276 117.016 953.946 117.81C951.3 118.778 948.515 119.249 945.716 119.203H933.783V143.396H924.342V81.2752H945.716ZM933.783 90.1174V110.549H945.61C947.017 110.655 948.431 110.46 949.765 109.975C951.1 109.49 952.328 108.725 953.376 107.727C955.098 105.708 956.051 103.088 956.051 100.371C956.051 97.6536 955.098 95.0329 953.376 93.0147C952.337 91.9969 951.112 91.2148 949.777 90.7165C948.441 90.2182 947.023 90.0143 945.61 90.1174H933.783ZM1043.5 143.396H1034.03V100.578L997.335 144.45H994.094V81.2752H1003.57V123.906L1040.26 80.2593H1043.5V143.396ZM1125.83 143.396H1115.68L1111.47 133.049H1084.97L1080.84 143.396H1070.72L1096.65 80.2593H1099.86L1125.83 143.396ZM1088.53 124.583H1108.16L1098.44 98.8844L1088.53 124.583ZM1201.64 143.396H1192.2V114.989H1162.63V143.396H1153.01V81.2752H1162.49V106.033H1192.05V81.2752H1201.5L1201.64 143.396ZM1284 143.396H1273.78L1269.57 133.049H1243.1L1238.86 143.396H1228.78L1254.72 80.2593H1257.92L1284 143.396ZM1246.56 124.583H1266.19L1256.46 98.8844L1246.56 124.583Z" fill="#58595B"/>
<path d="M656.392 279.785H646.342L642.181 269.411H615.98L611.819 279.785H601.875L627.547 216.675H630.72L656.392 279.785ZM619.33 260.991H638.76L629.134 235.319L619.33 260.991ZM719.372 226.749H692.643V279.785H683.368V217.728H719.443L719.372 226.749ZM767.648 217.728C770.418 217.681 773.175 218.152 775.794 219.118C778.104 219.903 780.24 221.182 782.07 222.877C783.796 224.599 785.165 226.686 786.091 229.004C787.972 233.945 787.972 239.474 786.091 244.415C785.175 246.697 783.817 248.746 782.106 250.429C780.264 252.108 778.132 253.385 775.829 254.188C773.213 255.167 770.456 255.65 767.683 255.616H755.87V279.597H746.49V217.728H767.648ZM755.835 226.598V246.971H767.542C768.934 247.065 770.331 246.864 771.65 246.38C772.969 245.896 774.186 245.139 775.229 244.152C776.137 243.164 776.841 241.985 777.297 240.691C777.752 239.396 777.949 238.015 777.874 236.634C777.94 235.255 777.74 233.876 777.285 232.582C776.83 231.289 776.13 230.11 775.229 229.117C774.197 228.109 772.984 227.335 771.662 226.844C770.34 226.353 768.938 226.154 767.542 226.26L755.835 226.598ZM853.831 226.598H824.88V242.536H846.602V251.181H824.88V270.839H854.889V279.785H815.535V217.728H853.831V226.598ZM919.492 226.598H892.727V279.785H883.382V217.728H919.633L919.492 226.598ZM986.88 279.748H976.794L972.528 269.411H946.327L942.166 279.785H932.222L957.893 216.675H961.067L986.88 279.748ZM949.818 260.954H969.213L959.621 235.281L949.818 260.954ZM1049.79 226.711H1030.18V279.785H1020.84V226.636H1001.27V217.728H1049.79V226.711ZM1103.25 216.75C1107.33 216.725 1111.38 217.555 1115.17 219.193C1118.79 220.747 1122.08 223.046 1124.87 225.959C1127.64 228.881 1129.86 232.338 1131.42 236.146C1133.03 240.162 1133.86 244.484 1133.86 248.85C1133.86 253.217 1133.03 257.538 1131.42 261.555C1128.31 269.246 1122.46 275.312 1115.17 278.432C1107.5 281.689 1098.96 281.689 1091.29 278.432C1087.67 276.898 1084.37 274.596 1081.6 271.666C1077.33 267.103 1074.43 261.286 1073.27 254.96C1072.12 248.634 1072.76 242.084 1075.11 236.146C1076.64 232.332 1078.86 228.873 1081.63 225.959C1084.42 223.046 1087.71 220.747 1091.33 219.193C1095.11 217.53 1099.16 216.674 1103.25 216.675V216.75ZM1103.25 225.884C1100.39 225.856 1097.56 226.444 1094.93 227.613C1092.42 228.696 1090.15 230.32 1088.26 232.384C1086.38 234.448 1084.91 236.906 1083.96 239.604C1082.89 242.5 1082.35 245.588 1082.37 248.7C1082.34 251.862 1082.88 255.001 1083.96 257.947C1084.96 260.65 1086.43 263.125 1088.3 265.239C1090.19 267.285 1092.44 268.908 1094.93 270.012C1097.56 271.181 1100.39 271.77 1103.25 271.741C1106.02 271.789 1108.77 271.237 1111.33 270.119C1113.9 269.001 1116.22 267.341 1118.16 265.239C1120.08 263.149 1121.58 260.668 1122.57 257.947C1123.65 255.001 1124.19 251.862 1124.16 248.7C1124.19 245.599 1123.65 242.523 1122.57 239.641C1121.57 236.936 1120.07 234.47 1118.16 232.387C1116.22 230.284 1113.9 228.624 1111.33 227.507C1108.77 226.389 1106.02 225.837 1103.25 225.884ZM1183.9 217.728C1186.67 217.681 1189.42 218.152 1192.04 219.118C1194.35 219.903 1196.49 221.182 1198.32 222.877C1200.04 224.599 1201.41 226.686 1202.34 229.004C1204.22 233.945 1204.22 239.474 1202.34 244.415C1201.38 246.711 1199.98 248.761 1198.21 250.429C1196.37 252.108 1194.24 253.385 1191.94 254.188C1189.32 255.167 1186.56 255.65 1183.79 255.616H1171.94V279.597H1162.6V217.728H1183.9ZM1172.05 226.598V246.971H1183.79C1185.18 247.065 1186.58 246.864 1187.9 246.38C1189.22 245.896 1190.43 245.139 1191.48 244.152C1192.39 243.164 1193.09 241.985 1193.54 240.691C1194 239.396 1194.2 238.015 1194.12 236.634C1194.19 235.255 1193.99 233.876 1193.53 232.582C1193.08 231.289 1192.38 230.11 1191.48 229.117C1190.45 228.109 1189.23 227.335 1187.91 226.844C1186.59 226.353 1185.19 226.154 1183.79 226.26L1172.05 226.598Z" fill="#58595B"/>
<path d="M658.26 412.686H648.844V385.845H619.352V412.686H609.9V354.104H619.352V377.466H648.844V354.104H658.26V412.686ZM740.411 412.686H730.284L726.091 402.922H699.691L695.604 412.686H685.549L711.558 353.11H714.756L740.411 412.686ZM703.066 394.934H722.645L712.944 370.684L703.066 394.934ZM793.283 353.11C798.436 352.984 803.532 354.208 808.065 356.66C812.301 358.992 815.872 362.364 818.44 366.46L811.334 371.714C809.4 368.658 806.77 366.103 803.659 364.258C800.506 362.446 796.92 361.526 793.283 361.595C790.474 361.551 787.684 362.076 785.083 363.138C782.481 364.199 780.122 365.776 778.146 367.773C776.231 369.731 774.721 372.047 773.705 374.59C772.62 377.348 772.077 380.289 772.106 383.253C772.07 386.217 772.613 389.16 773.705 391.916C774.721 394.469 776.231 396.797 778.146 398.768C780.073 400.698 782.353 402.241 784.862 403.313C787.534 404.405 790.396 404.96 793.283 404.946C796.92 405.015 800.506 404.095 803.659 402.283C806.77 400.438 809.4 397.883 811.334 394.827L818.44 400.046C815.912 404.158 812.362 407.545 808.136 409.881C803.575 412.325 798.458 413.548 793.283 413.431C785.141 413.516 777.287 410.421 771.395 404.804C768.586 402.065 766.351 398.794 764.822 395.182C761.649 387.508 761.649 378.891 764.822 371.217C766.368 367.604 768.601 364.325 771.395 361.56C774.225 358.839 777.539 356.672 781.167 355.169C785.034 353.706 789.149 353.007 793.283 353.11ZM890.998 412.686H881.582V362.519H864.348C864.43 370.392 863.812 378.258 862.501 386.022C861.622 391.305 859.957 396.427 857.562 401.218C855.837 404.676 853.225 407.617 849.993 409.739C847.034 411.555 843.709 412.694 840.257 413.076V404.271C842.731 403.734 844.999 402.502 846.795 400.721C848.896 398.568 850.487 395.972 851.45 393.123C852.847 389.174 853.777 385.075 854.222 380.91C854.867 375.157 855.164 369.372 855.11 363.584V354.104H890.998V412.686ZM962.063 362.59H932.891V377.608H954.779V385.774H932.891V404.342H963.129V412.686H923.617V354.104H962.205L962.063 362.59ZM1044.82 425.325H1035.4V412.686H995.996V425.219H986.545V404.236H991.093C993.033 402.531 994.72 400.558 996.103 398.378C997.775 395.739 999.078 392.884 999.976 389.892C1001.14 386.053 1001.97 382.122 1002.46 378.14C1003.1 372.923 1003.4 367.669 1003.35 362.412V354.104H1037.57V404.271H1044.96L1044.82 425.325ZM1012.27 362.59C1012.25 367.405 1011.99 372.216 1011.49 377.004C1011.07 380.885 1010.37 384.73 1009.39 388.507C1008.58 391.623 1007.45 394.645 1006.02 397.525C1004.76 399.971 1003.23 402.26 1001.43 404.342H1028.01V362.519L1012.27 362.59ZM1122.03 412.686H1112.61V372.318L1075.98 413.68H1072.78V354.104H1082.2V394.33L1118.83 353.11H1122.03V412.686ZM1195.72 412.686H1186.31V392.519H1173.69L1160.26 412.686H1149.6L1164.53 390.105C1161.39 388.682 1158.74 386.359 1156.92 383.43C1155.08 380.356 1154.14 376.824 1154.22 373.241C1154.19 370.575 1154.7 367.93 1155.72 365.465C1156.71 363.166 1158.19 361.108 1160.05 359.43C1162.02 357.681 1164.31 356.341 1166.8 355.489C1169.61 354.506 1172.57 354.026 1175.54 354.069H1195.72V412.686ZM1175.47 362.412C1173.9 362.307 1172.33 362.527 1170.85 363.058C1169.37 363.59 1168.02 364.422 1166.87 365.501C1165.89 366.529 1165.12 367.743 1164.61 369.073C1164.11 370.402 1163.87 371.819 1163.92 373.241C1163.87 374.684 1164.1 376.125 1164.6 377.479C1165.11 378.832 1165.88 380.071 1166.87 381.123C1168.02 382.189 1169.38 383.009 1170.86 383.534C1172.34 384.059 1173.91 384.277 1175.47 384.176H1186.31V362.412H1175.47Z" fill="#58595B"/>
</g>
<defs>
<clipPath id="clip0_30_192">
<rect width="1284" height="489.525" fill="white"/>
</clipPath>
</defs>
</svg>
